<svg width="203" height="342" viewBox="0 0 203 342" fill="none" xmlns="http://www.w3.org/2000/svg">
<path d="M84.6138 215.41L79.0721 206.666L75.1074 201.889C72.8085 199.122 70.0432 195.767 66.978 193.922C59.2929 189.312 50.8638 186.656 42.0571 188.223C33.5391 189.734 23.1442 194.7 19.135 201.877C15.448 208.477 14.3041 216.787 15.4702 224.42C16.9806 234.208 20.0679 243.763 24.7878 252.307L35.8601 272.372L38.6365 276.638L46.9769 288.437L57.7049 304.281L60.0926 308.836L65.9342 318.824L70.5652 328.512C72.653 329.69 75.6405 327.19 77.9393 326.112L90.6552 320.124L107.514 313.38L115.532 309.902L125.371 305.736L135.944 301.292L148.815 295.748C151.636 294.537 155.557 293.593 157.944 291.626L167.14 284.038C168.461 282.949 169.327 279.86 171.538 278.683C173.903 277.427 179.245 271.272 180.611 268.239L183.509 261.795L187.363 251.04C189.64 244.696 188.14 238.819 185.242 232.742C179.5 220.72 166.496 214.532 153.024 215.843C146.317 216.499 140.353 219.409 134.067 221.676L124.339 225.187L131.935 220.154L130.202 214.699L125.371 215.432L117.575 223.342L113.933 228.02L112.278 227.742C111.923 227.687 110.879 228.52 111.167 228.731L112.655 229.798C111.678 230.22 110.879 230.542 110.357 230.464C109.835 230.386 108.58 229.531 108.935 229.142C111.767 226.12 113.455 227.431 118.675 217.31L121.618 211.61C122.706 209.499 124.183 208.266 122.639 205.51L120.107 207.421L117.464 204.733C119.819 203.411 121.074 201.466 121.396 198.922L122.162 192.945C122.195 192.7 122.962 191.634 123.15 191.8L124.938 193.478C126.182 191.189 127.015 188.39 127.415 185.723L130.558 179.968L135.888 167.991L138.931 161.136C141.552 155.225 142.108 140.427 141.264 133.56C140.608 128.228 138.432 122.761 136.433 118.084C135.9 116.851 134.001 114.751 132.834 113.484C131.968 112.551 129.269 114.529 128.348 115.417L122.284 121.206L114.577 126.761C108.169 131.372 101.483 135.027 93.887 137.338L82.5815 140.771C72.7308 143.76 62.558 145.526 52.152 143.737L45.0111 142.504C44.3781 142.393 43.1787 141.36 42.679 141.004L35.0272 135.505L35.1716 133.749C34.9939 135.794 25.3764 123.761 27.2865 114.862C28.386 109.751 31.9509 104.94 34.7162 101.885C38.4366 102.685 41.8016 102.363 44.8779 101.73L45.5442 99.052L40.0913 99.6075C41.5795 97.8965 42.9455 97.6854 46.0439 98.0521L42.9344 93.9635L48.5649 91.6415C57.4828 82.3644 72.7308 79.1646 86.1908 77.7425C89.9889 77.3426 93.465 77.0759 97.1409 77.6647L107.38 79.3091C113.81 80.3423 126.749 87.1085 132.657 92.7192C134.211 91.3081 135.278 89.1639 136.422 86.7418C139.365 80.509 144.107 74.4206 144.429 67.1211L144.851 57.6996C144.94 55.8442 143.996 52.3111 143.374 50.1891L141.674 44.3673L133.456 30.5906C129.836 24.5244 119.874 19.5137 112.889 16.6583C111.989 16.2917 109.346 16.7583 108.913 16.8028C105.415 14.8807 101.783 13.503 97.774 12.5809L90.9218 11.0254C90.2666 10.881 88.9672 9.58109 89.1005 8.98113C89.5669 6.93685 94.309 7.75901 95.5306 3.67043L93.8981 1.11507C99.9729 -1.49584 105.714 1.08174 111.334 2.71495C114.532 3.64821 117.209 4.69257 119.785 6.57021L117.153 9.27L119.119 9.24778C119.463 9.24778 120.196 10.2033 119.963 9.96995L121.718 6.21468C130.78 10.9365 139.509 15.2362 146.128 22.7023L152.58 31.7238L156.079 39.2677C161.62 51.2446 161.887 64.7324 156.923 77.387L148.249 94.2635L143.252 102.707C146.861 106.229 148.782 108.751 150.348 112.762L154.757 124.006C157.456 130.883 158.011 147.137 155.134 155.559L152.092 155.492C151.292 156.881 150.703 159.725 150.859 161.347L153.502 156.448C154.868 160.747 152.436 163.414 149.593 165.625L147.871 169.958C145.861 171.258 145.573 173.724 146.628 175.279L147.749 173.369C147.971 173.002 149.293 173.535 149.104 173.924L145.362 181.523L141.275 189.612L140.097 187.167C139.898 186.756 138.52 187.567 138.065 187.701L131.746 189.401C133.667 193.178 132.69 195.322 130.402 197.878L124.938 203.966C124.605 204.333 123.184 205.011 123.461 205.288L124.794 206.622C125.083 206.91 125.971 205.544 126.249 205.177C132.779 202.622 132.423 196.133 133.345 196.467L135.988 197.422C135.822 199.511 133.678 201.289 131.535 203C130.369 203.988 129.414 206.955 128.836 208.832L134.256 208.788C138.654 206.122 143.329 205.366 148.071 204.388C152.68 203.433 156.545 202.766 160.765 204.966C172.826 202.711 179.9 207.488 187.807 215.432C190.095 217.732 192.638 219.276 192.216 223.098C192.316 223.32 192.461 223.409 192.583 223.242L193.293 222.187L194.726 227.875C195.348 230.353 196.236 233.064 197.536 234.486L200.301 232.886C202.078 231.864 206.498 249.729 197.736 265.25L195.004 271.617L193.638 271.761L193.593 268.495C193.593 267.817 191.428 268.161 191.35 268.606C191.161 269.994 190.839 272.394 190.961 271.472L188.851 271.828L189.873 273.85C190.04 274.183 190.75 273.994 191.861 273.816C192.905 276.216 191.061 277.683 189.618 279.627C183.31 288.115 176.335 294.793 166.862 299.825L156.667 305.247L123.994 320.646L117.853 323.024L104.226 329.012L99.2288 331.123L89.5669 334.856L81.1599 338.711C78.3502 340 76.0625 340.978 72.9307 341.656L74.2523 340.067L75.2296 338.434C76.218 337.356 77.1842 335.489 76.7621 334.078C76.329 332.612 74.0301 331.556 72.4309 332.123C70.3542 332.856 67.6888 335.134 67.5223 337.067L71.2648 342L66.0341 341.944C61.614 340.611 58.9931 336.145 56.9274 332.434L53.2404 325.835L50.2308 320.413L42.0015 307.547L17.6469 271.228C13.0602 264.384 9.27325 257.04 6.23031 249.363C2.80977 240.719 1.16609 230.653 0 221.843L0.455369 216.587C0.83296 212.221 1.49926 207.477 3.19843 203.188C5.25297 197.978 8.09606 192.045 12.4161 191L16.4141 187.523C18.3576 185.834 20.6009 184.245 21.3783 182.135C30.6182 174.58 53.7624 173.224 64.4349 177.535C68.4995 179.179 72.7197 180.501 76.2735 182.857C82.2039 186.801 87.3236 190.923 91.4993 196.622C96.9188 204.011 101.616 211.743 102.749 221.043L105.859 223.587L100.228 232.22L103.016 233.842L102.605 231.82C102.549 231.553 103.593 231.186 103.715 231.431C103.838 231.675 104.149 232.231 104.182 232.486L104.36 233.597C104.415 233.953 105.648 233.508 106.059 233.419L111.534 232.308C105.381 238.175 105.204 243.341 96.8633 241.43C94.0536 240.786 91.577 237.508 90.4998 234.108L89.5447 231.12C89.3448 230.486 90.6663 229.653 91.5659 228.931L87.2569 220.409L84.6027 215.41H84.6138ZM50.2641 129.961C59.3707 132.172 75.6071 130.039 85.1246 126.172L91.2105 123.695L106.103 115.206L113.522 110.162C117.131 107.707 120.507 105.685 124.938 103.663C117.531 97.3077 108.713 93.3858 99.4731 91.797C95.6639 89.7972 91.688 90.7526 87.6678 90.9304C70.9538 91.6526 59.8482 97.9299 46.7991 108.24L42.4457 115.329C43.1787 119.362 41.8238 122.039 38.7143 123.983L37.1372 130.605L47.6432 134.183C48.1096 134.338 49.8087 133.76 50.0419 133.383C50.2752 133.005 50.1086 131.972 49.7977 131.638L48.7426 130.516C48.576 130.338 49.9753 129.894 50.2641 129.961Z" fill="#AD2D24"/>
</svg>
